<svg width="24" height="24" viewBox="0 0 24 24" fill="none" xmlns="http://www.w3.org/2000/svg">
<path fill-rule="evenodd" clip-rule="evenodd" d="M12 5C10.8471 5 10 5.87622 10 6.85185V12.1481C10 13.1238 10.8471 14 12 14C13.1529 14 14 13.1238 14 12.1481V6.85185C14 5.87622 13.1529 5 12 5ZM8 6.85185C8 4.67741 9.83919 3 12 3C14.1608 3 16 4.67741 16 6.85185V12.1481C16 14.3226 14.1608 16 12 16C9.83919 16 8 14.3226 8 12.1481V6.85185ZM6 11C6.55228 11 7 11.4477 7 12C7 14.7614 9.23856 17 12 17C14.7614 17 17 14.7614 17 12C17 11.4477 17.4477 11 18 11C18.5523 11 19 11.4477 19 12C19 15.5265 16.3923 18.4439 13 18.9291V20C13 20.5523 12.5523 21 12 21C11.4477 21 11 20.5523 11 20V18.9291C7.6077 18.4439 5 15.5265 5 12C5 11.4477 5.44772 11 6 11Z" fill="#8E8E90"/>
</svg>
